<svg xmlns="http://www.w3.org/2000/svg" viewBox="0 0 31.4 31.4">
  <path d="M28.8 7l-.5.1-2.5.2-.7 1.2-.5-.2-2-1.8-.3-1-.4-1-1.3-1-1.4-.3v.6l1.4 1.5.7.8-.8.4-.7-.2-1-.4.1-.8-1.3-.5-.4 1.8-1.3.3.1 1 1.7.4.3-1.7 1.4.2.6.4h1l.8 1.4 1.8 2-.1.7-1.5-.2-2.6 1.3-1.9 2.2-.2 1h-.7l-1.3-.5-1.2.5.3 1.3.6-.6h.9v1.1l.7.3.8.8 1.2-.3 1.5.2 1.6.4.9.1 1.4 1.7 2.7 1.6-1.8 3.3-1.8.9-.7 2-2.7 1.7-.3 1a15.7 15.7 0 009.4-24z"/>
  <path d="M17.5 24l-1.1-2.2 1-2.2-1-.3-1.2-1.2-2.6-.6-.9-1.8v1h-.4l-2.2-3v-2.5L7.4 8.5 4.8 9H3l-.8-.6 1-.9-1 .3a15.7 15.7 0 0015.5 23.5l-.2-2 .7-2.8-.7-2.6zM5.8 5l2.8-.3L10 4l1.5.4 2.3-.1.8-1.3 1.1.2 2.8-.3.8-.8 1-.7 1.6.2h.6A15.6 15.6 0 003.6 5.6l2.2-.6zm10.6-3.4l1.6-1 1 .7-1.5 1.1-1.4.2-.7-.5 1-.5zm-4.8 0l.7.4 1-.3.5.9-2.2.5-1-.6s1-.6 1-.8z"/>
</svg>
